<svg width="16" height="16" viewBox="0 0 16 16" xmlns="http://www.w3.org/2000/svg"><title>Browser / Icon - Locked Copy</title><path d="M7.094 8.157A2.008 2.008 0 0 1 6 6.367c0-1.108.895-2.007 2-2.007s2 .899 2 2.007a2.01 2.01 0 0 1-1.094 1.79l.674 2.764a.661.661 0 0 1-.641.821H7.06a.661.661 0 0 1-.641-.821l.674-2.764zM13 1a3 3 0 0 1 3 3v9a2 2 0 0 1-2 2H3a3 3 0 0 1-3-3V4a3 3 0 0 1 3-3h10zm-1.25 2h-7.5C3.007 3 2 3.96 2 5.143v5.714C2 12.041 3.007 13 4.25 13h8.25c.828 0 1.5-.64 1.5-1.429V5.143C14 3.959 12.993 3 11.75 3z" fill="#4A4A4F"/></svg>