<svg width="16" height="16" viewBox="0 0 16 16" xmlns="http://www.w3.org/2000/svg"><title>Browser / Icon Copy</title><path d="M3.6.963v2.096C2.674 3.325 2 4.146 2 5.117v5.73c0 1.186 1.007 2.148 2.25 2.148h8.25c.828 0 1.5-.642 1.5-1.433V5.117c0-.971-.674-1.792-1.6-2.058V.963h.6c1.657 0 3 1.346 3 3.008v9.024A2.003 2.003 0 0 1 14 15H3c-1.657 0-3-1.347-3-3.008V3.971A3.004 3.004 0 0 1 3 .963h.6zm3.494 7.175A2.014 2.014 0 0 1 6 6.344c0-1.111.895-2.012 2-2.012s2 .9 2 2.012c0 .783-.445 1.462-1.094 1.794l.674 2.772a.663.663 0 0 1-.641.824H7.06a.662.662 0 0 1-.641-.824l.674-2.772z" fill="#4A4A4F"/></svg>